<?xml version="1.0" encoding="UTF-8"?>
<svg version="1.1" xmlns="http://www.w3.org/2000/svg" width="760" height="860">
<path d="M0 0 C4.54653972 2.38209048 4.54653972 2.38209048 9.5 3.0625 C9.5 3.7225 9.5 4.3825 9.5 5.0625 C10.32983398 5.32047363 11.15966797 5.57844727 12.01464844 5.84423828 C15.87792471 7.19459893 19.55923009 8.83186089 23.265625 10.5546875 C24.00711792 10.89628906 24.74861084 11.23789063 25.51257324 11.58984375 C27.92643438 12.7027547 30.33822077 13.8200855 32.75 14.9375 C34.44029941 15.71789291 36.13073036 16.49800098 37.82128906 17.27783203 C41.18633404 18.83065983 44.55058087 20.38519512 47.9140625 21.94140625 C51.7014787 23.69368847 55.49071126 25.44198031 59.28125 27.1875 C68.00789426 31.20748106 76.73022694 35.23632082 85.43955994 39.29367065 C110.12251868 50.7918528 134.87933773 62.1027196 159.85351562 72.95629883 C160.56982651 73.26807068 161.28613739 73.57984253 162.02415466 73.90106201 C163.37800961 74.48984566 164.73250271 75.07716526 166.08778381 75.66265869 C170.0852631 77.40116747 173.99185416 79.27008537 177.875 81.25 C184.41172101 84.56647906 191.03336029 87.67628819 197.6875 90.75 C198.64640137 91.19432373 199.60530273 91.63864746 200.59326172 92.09643555 C208.85858929 95.90095388 217.17345745 99.59244013 225.48950195 103.28442383 C226.7546025 103.84633954 228.01969099 104.40828238 229.28476715 104.97025299 C232.35639335 106.33460148 235.42814082 107.69867619 238.5 109.0625 C238.67323638 142.88119096 238.83589257 176.6999139 238.98431293 210.51872258 C239.00183512 214.50922685 239.01944511 218.49973073 239.03710938 222.49023438 C239.04062461 223.28468866 239.04413985 224.07914295 239.0477616 224.89767161 C239.10492689 237.76985425 239.1692092 250.64199205 239.236111 263.51412734 C239.30457471 276.7171824 239.36541501 289.92025662 239.41914403 303.12337995 C239.45255244 311.27370723 239.49194257 319.4239609 239.53892837 327.5742214 C239.57429045 333.81855426 239.59905789 340.06288777 239.61981392 346.30728531 C239.63001486 348.87281289 239.64369073 351.43832928 239.66103554 354.00381851 C239.68414102 357.49694756 239.69493231 360.98990122 239.70254517 364.48309326 C239.7122618 365.50643414 239.72197843 366.52977502 239.7319895 367.58412623 C239.7314908 368.51867365 239.7309921 369.45322107 239.73047829 370.4160881 C239.73617409 371.62587708 239.73617409 371.62587708 239.74198496 372.86010623 C239.46416794 375.38862067 238.88723995 376.93303095 237.5 379.0625 C234.97098044 380.53008068 232.54154309 381.77290637 229.890625 382.9765625 C228.71882187 383.52690407 228.71882187 383.52690407 227.52334595 384.08836365 C224.93747412 385.2996795 222.34385011 386.49337656 219.75 387.6875 C217.93185628 388.5357471 216.11431843 389.38529394 214.29736328 390.23608398 C210.5429377 391.99256536 206.7857567 393.74293884 203.02636719 395.48876953 C195.56508061 398.95777275 188.13338097 402.48863198 180.70150757 406.02008057 C176.79084552 407.87735649 172.87780881 409.72961357 168.96484375 411.58203125 C168.18903458 411.94939392 167.4132254 412.31675659 166.61390686 412.69525146 C161.7945135 414.97711522 156.97414483 417.25690822 152.15322876 419.53555298 C148.08096354 421.46045034 144.00912292 423.38624445 139.9375 425.3125 C138.74483521 425.8766864 138.74483521 425.8766864 137.52807617 426.45227051 C125.92578876 431.9428186 114.35867559 437.50154216 102.81030273 443.10449219 C95.07924991 446.84537631 87.30432378 450.47744446 79.5 454.0625 C64.80640651 460.82247477 50.30061529 467.96116881 35.78100586 475.08520508 C33.86703949 476.02428136 31.95305862 476.96332811 30.0390625 477.90234375 C29.11507156 478.35569595 28.19108063 478.80904816 27.23908997 479.27613831 C17.66238533 483.97071975 8.06289217 488.62148116 -1.60107422 493.13427734 C-3.3187415 493.9738982 -4.97902237 494.92849437 -6.62890625 495.89453125 C-11.07342566 497.70257384 -14.31514643 496.92056034 -18.71679688 495.19189453 C-21.26027352 494.06186419 -23.75512172 492.858571 -26.25 491.625 C-27.17248535 491.17761475 -28.0949707 490.73022949 -29.04541016 490.26928711 C-35.84427826 486.94665013 -42.53853849 483.44203757 -49.2121582 479.8762207 C-56.1359515 476.19855537 -63.18498866 472.81996942 -70.27368164 469.47363281 C-75.92200538 466.7983843 -81.53459561 464.0631106 -87.1171875 461.25390625 C-87.75815872 460.93152985 -88.39912994 460.60915344 -89.05952454 460.27700806 C-92.22180958 458.68466929 -95.38087731 457.08622576 -98.53686523 455.48144531 C-100.24531616 454.6185791 -100.24531616 454.6185791 -101.98828125 453.73828125 C-103.00446533 453.22177002 -104.02064941 452.70525879 -105.06762695 452.1730957 C-107.35756784 450.92405224 -107.35756784 450.92405224 -109.5 451.0625 C-109.5 450.4025 -109.5 449.7425 -109.5 449.0625 C-110.37108398 448.79066895 -111.24216797 448.51883789 -112.13964844 448.23876953 C-115.35002689 447.11499712 -118.24105953 445.79097186 -121.265625 444.2421875 C-122.32007813 443.70722656 -123.37453125 443.17226563 -124.4609375 442.62109375 C-125.54632813 442.06550781 -126.63171875 441.50992187 -127.75 440.9375 C-129.92001327 439.82708337 -132.09179996 438.7201233 -134.265625 437.6171875 C-135.70083496 436.88218018 -135.70083496 436.88218018 -137.16503906 436.13232422 C-139.37497658 434.92365437 -139.37497658 434.92365437 -141.5 435.0625 C-141.5 434.4025 -141.5 433.7425 -141.5 433.0625 C-142.37108398 432.79066895 -143.24216797 432.51883789 -144.13964844 432.23876953 C-147.35002689 431.11499712 -150.24105953 429.79097186 -153.265625 428.2421875 C-154.84730469 427.43974609 -154.84730469 427.43974609 -156.4609375 426.62109375 C-157.54632813 426.06550781 -158.63171875 425.50992187 -159.75 424.9375 C-161.92001327 423.82708337 -164.09179996 422.7201233 -166.265625 421.6171875 C-167.70083496 420.88218018 -167.70083496 420.88218018 -169.16503906 420.13232422 C-171.37497658 418.92365437 -171.37497658 418.92365437 -173.5 419.0625 C-173.5 418.4025 -173.5 417.7425 -173.5 417.0625 C-174.34341949 416.80344879 -175.18683899 416.54439758 -176.05581665 416.27749634 C-179.7245349 414.98329136 -183.14312593 413.37413657 -186.60693359 411.62255859 C-187.29055969 411.28089157 -187.97418579 410.93922455 -188.67852783 410.58720398 C-190.92041686 409.46556707 -193.15942431 408.33830265 -195.3984375 407.2109375 C-196.95910415 406.4287376 -198.5199487 405.64689256 -200.08096313 404.86538696 C-204.17620011 402.81396214 -208.26901104 400.75774255 -212.36132812 398.70050049 C-216.54281066 396.59950452 -220.72657975 394.50307236 -224.91015625 392.40625 C-233.10901055 388.29611876 -241.30514408 384.18059701 -249.5 380.0625 C-250.51635488 365.63218426 -250.63668798 351.25610807 -250.61352539 336.79443359 C-250.61324273 334.29919943 -250.61340279 331.80396519 -250.6139679 329.30873108 C-250.61419407 323.9740778 -250.61139657 318.63943979 -250.60573006 313.3047905 C-250.59754301 305.59213804 -250.59499252 297.87949147 -250.59374207 290.16683514 C-250.59156276 277.64832942 -250.58493334 265.12983028 -250.57543945 252.61132812 C-250.56623615 240.46321648 -250.55916965 228.31510663 -250.55493164 216.16699219 C-250.55466892 215.41601133 -250.55440619 214.66503047 -250.55413551 213.89129262 C-250.55283031 210.12319402 -250.55156664 206.35509541 -250.55032361 202.58699679 C-250.53998597 171.41215975 -250.52232323 140.23733088 -250.5 109.0625 C-245.84995897 106.87042381 -241.19950838 104.67921959 -236.54869843 102.48877525 C-234.97106447 101.74559615 -233.393537 101.00219092 -231.81612396 100.25854301 C-219.88955162 94.6362009 -207.9247824 89.11326185 -195.88232422 83.74316406 C-193.82606324 82.82477916 -191.77228975 81.90101228 -189.71875 80.9765625 C-188.56310547 80.4604541 -187.40746094 79.9443457 -186.21679688 79.41259766 C-183.43538131 78.21024698 -183.43538131 78.21024698 -181.5 76.0625 C-179.62857602 75.43869201 -177.75119313 74.83216728 -175.86572266 74.25219727 C-171.66005682 72.76560147 -167.68351919 70.92172775 -163.6484375 69.02734375 C-162.79432281 68.62979385 -161.94020813 68.23224396 -161.06021118 67.82264709 C-158.3303718 66.55148429 -155.60257559 65.27601209 -152.875 64 C-142.03267347 58.93754659 -131.18552042 53.88654146 -120.2890625 48.94140625 C-119.43460541 48.55057358 -118.58014832 48.15974091 -117.69979858 47.75706482 C-116.91408478 47.4022554 -116.12837097 47.04744598 -115.31884766 46.68188477 C-114.28179184 46.21118309 -114.28179184 46.21118309 -113.2237854 45.73097229 C-111.5 45.0625 -111.5 45.0625 -109.5 45.0625 C-109.17 44.4025 -108.84 43.7425 -108.5 43.0625 C-106.51359036 42.35636886 -104.51064074 41.69635193 -102.5 41.0625 C-100.53722189 40.20621386 -98.58843675 39.31736711 -96.65234375 38.40234375 C-95.50862305 37.86464355 -94.36490234 37.32694336 -93.18652344 36.77294922 C-92.57804565 36.48514587 -91.96956787 36.19734253 -91.34265137 35.90081787 C-88.00671431 34.32347773 -84.66522927 32.75796411 -81.32421875 31.19140625 C-80.61516388 30.85866699 -79.90610901 30.52592773 -79.17556763 30.18310547 C-70.72206819 26.22078901 -62.23639896 22.32871918 -53.75 18.4375 C-50.63276497 17.00791612 -47.51557067 15.57824348 -44.3984375 14.1484375 C-43.64495529 13.80287308 -42.89147308 13.45730865 -42.11515808 13.10127258 C-37.23144114 10.86036332 -32.35222854 8.60993123 -27.4765625 6.3515625 C-26.86228394 6.0671933 -26.24800537 5.7828241 -25.6151123 5.48983765 C-22.784483 4.17927065 -19.95462051 2.86709366 -17.12597656 1.55224609 C-16.15370117 1.10187988 -15.18142578 0.65151367 -14.1796875 0.1875 C-13.34163574 -0.20179688 -12.50358398 -0.59109375 -11.64013672 -0.9921875 C-6.5298207 -3.24944778 -4.97139214 -2.46890083 0 0 Z M-4.5 14.0625 C-4.17 79.7325 -3.84 145.4025 -3.5 213.0625 C12.96988459 205.66254538 12.96988459 205.66254538 29.375 198.125 C31.07958374 197.33307251 31.07958374 197.33307251 32.81860352 196.52514648 C44.99817395 190.85744993 57.13377822 185.09622648 69.26708984 179.33032227 C77.98759375 175.18765093 86.72250163 171.08339858 95.5 167.0625 C96.37648193 166.66023193 97.25296387 166.25796387 98.15600586 165.84350586 C100.7700975 164.64441552 103.3849662 163.44703414 106 162.25 C113.37650285 158.87195862 120.75053177 155.48863625 128.12109375 152.09765625 C147.33050244 143.26095584 166.55957288 134.46939507 185.81542969 125.734375 C191.3992643 123.20116889 196.98079469 120.66289344 202.5625 118.125 C204.32420822 117.32419558 206.08592566 116.52341146 207.84765625 115.72265625 C208.55929932 115.39918213 209.27094238 115.07570801 210.00415039 114.74243164 C210.49778076 114.5180542 210.99141113 114.29367676 211.5 114.0625 C211.5 113.4025 211.5 112.7425 211.5 112.0625 C194.65145416 104.0658728 177.74866484 96.22112066 160.6875 88.6875 C150.97232707 84.39683982 141.27863879 80.09320378 131.70776367 75.48706055 C124.18897104 71.88075802 116.59451267 68.44290546 109 65 C108.29917297 64.6821756 107.59834595 64.3643512 106.87628174 64.03689575 C103.98050024 62.72366177 101.08467408 61.41052641 98.1887207 60.09767151 C90.0153727 56.39135821 81.84993994 52.66776753 73.6875 48.9375 C72.955242 48.60285736 72.22298401 48.26821472 71.46853638 47.9234314 C61.61073738 43.41663182 51.7667995 38.8811352 41.9375 34.3125 C40.81923828 33.79308838 39.70097656 33.27367676 38.54882812 32.73852539 C33.38255627 30.33747566 28.21851583 27.93186384 23.05979919 25.51461792 C20.1040782 24.13107633 17.14544626 22.75377622 14.1875 21.375 C13.11363037 20.86936523 12.03976074 20.36373047 10.93334961 19.84277344 C9.92796143 19.37516602 8.92257324 18.90755859 7.88671875 18.42578125 C7.01233154 18.01626221 6.13794434 17.60674316 5.23706055 17.18481445 C2.08341276 15.89168103 -1.22267156 14.99887956 -4.5 14.0625 Z M-231.5 118.0625 C-228.30421609 120.6246371 -224.96700712 122.48368319 -221.328125 124.35546875 C-220.73357513 124.66242676 -220.13902527 124.96938477 -219.52645874 125.28564453 C-217.60284544 126.2774514 -215.67650905 127.26383145 -213.75 128.25 C-212.41703757 128.93572565 -211.08419295 129.62168036 -209.75146484 130.30786133 C-202.1022801 134.24116986 -194.42740163 138.11915755 -186.71972656 141.93652344 C-182.81236962 143.89087969 -178.94417811 145.91588119 -175.07714844 147.94862366 C-161.83475591 154.90703449 -148.48734997 161.64685953 -135.10253906 168.32641602 C-132.09996721 169.82485224 -129.09922846 171.32691918 -126.09894753 172.82993603 C-114.86691145 178.45502844 -103.62122242 184.04138326 -92.2734375 189.4296875 C-78.8754419 195.79338344 -65.6002457 202.40113359 -52.33056641 209.02709961 C-48.77037549 210.80439111 -45.20648892 212.57414759 -41.64183998 214.34247684 C-38.87073557 215.71876561 -36.10229148 217.10033839 -33.33457565 218.48342705 C-32.01901379 219.13969713 -30.70245408 219.79397093 -29.38487625 220.44618416 C-27.5671021 221.34660255 -25.75340704 222.25524199 -23.93994141 223.16430664 C-22.91011139 223.67739883 -21.88028137 224.19049103 -20.81924438 224.71913147 C-18.5 226.0625 -18.5 226.0625 -17.5 228.0625 C-17.36835499 230.49185822 -17.2956814 232.89517904 -17.26585388 235.32632446 C-17.2527488 236.0834905 -17.23964372 236.84065654 -17.22614151 237.620767 C-17.1831842 240.17111637 -17.14716646 242.72151742 -17.11108398 245.27197266 C-17.08179559 247.0949113 -17.05208179 248.91784316 -17.02197266 250.74076843 C-16.94125517 255.70117459 -16.86651774 260.66165524 -16.79281878 265.62216997 C-16.71485715 270.80190948 -16.63144446 275.98156107 -16.54859924 281.16122437 C-16.39247065 290.97486448 -16.24127533 300.78857421 -16.09183317 310.60231817 C-15.9214934 321.77270807 -15.74568322 332.94300974 -15.56940353 344.11330724 C-15.20682985 367.09627824 -14.85115843 390.07935195 -14.5 413.0625 C-14.17 413.0625 -13.84 413.0625 -13.5 413.0625 C-13.50222061 411.94912766 -13.50444122 410.83575531 -13.50672913 409.68864441 C-13.53461187 395.209105 -13.55197521 380.72956218 -13.5625 366.25 C-13.56378403 364.49617949 -13.56378403 364.49617949 -13.56509399 362.70692825 C-13.58805439 327.13495832 -13.42632664 291.56946862 -13 256 C-12.98206327 254.50258081 -12.98206327 254.50258081 -12.96376419 252.97491074 C-12.8194569 241.00396702 -12.66536665 229.03317133 -12.5 217.0625 C-14.88903994 215.7828612 -17.27869053 214.50438601 -19.66870117 213.2265625 C-20.33971611 212.86699463 -21.01073105 212.50742676 -21.70207977 212.13696289 C-27.00722982 209.30231218 -32.37098514 206.62628063 -37.8125 204.0625 C-38.76141113 203.61229492 -39.71032227 203.16208984 -40.68798828 202.69824219 C-42.79746906 201.69868104 -44.90786237 200.70104403 -47.01904297 199.70507812 C-49.45659857 198.55485551 -51.89321521 197.40281602 -54.32861328 196.24804688 C-81.23535329 183.49096504 -108.30049682 171.10883619 -135.52954102 159.05541992 C-141.00346908 156.62921642 -146.4586737 154.17716297 -151.875 151.625 C-170.73026373 142.76196078 -189.81397213 134.42976232 -209 126.3125 C-209.83749786 125.95648712 -210.67499573 125.60047424 -211.53787231 125.2336731 C-213.92935559 124.21832117 -216.32354309 123.2096563 -218.71875 122.203125 C-219.43212021 121.89956589 -220.14549042 121.59600677 -220.88047791 121.2832489 C-224.39566941 119.81595534 -227.72634017 118.63166014 -231.5 118.0625 Z M218.41015625 124.828125 C217.60336426 125.19486328 216.79657227 125.56160156 215.96533203 125.93945312 C215.15177246 126.31005859 214.33821289 126.68066406 213.5 127.0625 C212.0832471 127.6850659 210.66531856 128.30496494 209.24609375 128.921875 C208.53517578 129.23382813 207.82425781 129.54578125 207.09179688 129.8671875 C205.6842738 130.48481322 204.275468 131.09952613 202.86523438 131.7109375 C197.77820719 133.95159764 192.81206269 136.39399742 187.8515625 138.8984375 C180.78375427 142.46159442 173.63905111 145.8063686 166.41885376 149.04776001 C162.87227045 150.64037667 159.33086562 152.24444385 155.7890625 153.84765625 C155.04334488 154.18498276 154.29762726 154.52230927 153.52931213 154.86985779 C144.43448234 158.98923416 135.37402435 163.18300582 126.3125 167.375 C115.87121593 172.20524397 105.42474278 177.02007385 94.9375 181.75 C89.49998342 184.20345195 84.1235424 186.71736758 78.8125 189.4375 C70.83922904 193.50117192 62.63545741 197.04268182 54.45141602 200.6574707 C46.08162469 204.35464533 37.75934973 208.12389821 29.5 212.0625 C28.59169434 212.49481934 27.68338867 212.92713867 26.74755859 213.37255859 C21.69258511 215.77980449 16.63964637 218.19129976 11.58984375 220.609375 C10.75316162 221.00995117 9.91647949 221.41052734 9.05444336 221.82324219 C6.19118831 223.21231632 3.34643727 224.63928136 0.5 226.0625 C0.5 236.9525 0.5 247.8425 0.5 259.0625 C13.42077945 265.29752729 26.3507044 271.4849138 39.375 277.5 C48.62401648 281.77265737 57.83027689 286.12224075 67 290.5625 C79.56632626 296.64442303 92.21675387 302.53317145 104.88916016 308.39013672 C111.72738722 311.5572669 118.55340159 314.75058755 125.38058472 317.94143677 C132.2658681 321.15912151 139.15444846 324.36918098 146.0546875 327.5546875 C167.1654201 337.30446954 167.1654201 337.30446954 176.18334961 341.88720703 C182.57412944 345.12776893 189.02315817 348.24744188 195.47488403 351.36428833 C196.76509794 351.98763793 198.05504345 352.6115434 199.34469604 353.23605347 C203.38901887 355.194024 207.44092374 357.13523144 211.5 359.0625 C212.40379395 359.49498047 213.30758789 359.92746094 214.23876953 360.37304688 C215.02751465 360.73978516 215.81625977 361.10652344 216.62890625 361.484375 C217.29092041 361.7947168 217.95293457 362.10505859 218.63500977 362.42480469 C220.8023098 363.27819257 220.8023098 363.27819257 224.5 363.0625 C224.5 362.25520761 224.5 361.44791523 224.5 360.61615944 C224.5 281.43160629 224.5 202.24705315 224.5 123.0625 C222.04135961 123.0625 220.64427182 123.80230809 218.41015625 124.828125 Z M0.5 274.0625 C-0.38749009 301.90189049 -0.59976116 329.73107116 -0.59765625 357.58203125 C-0.59759189 358.43358716 -0.59752753 359.28514308 -0.59746122 360.16250372 C-0.59581539 370.70278003 -0.58547096 381.24304082 -0.57202661 391.78330791 C-0.56062346 400.88928689 -0.55529454 409.99526684 -0.55032361 419.10125124 C-0.54001221 437.75500893 -0.52255063 456.40875328 -0.5 475.0625 C3.97637628 474.39040183 7.3351363 473.37374532 11.3671875 471.2890625 C12.48834961 470.71687988 13.60951172 470.14469727 14.76464844 469.55517578 C15.35306519 469.25065491 15.94148193 468.94613403 16.54772949 468.63238525 C19.6707599 467.01745995 22.8076973 465.43010769 25.9453125 463.84375 C26.58049805 463.52221954 27.21568359 463.20068909 27.87011719 462.86941528 C33.92598486 459.81896138 40.07017522 456.97772857 46.25 454.1875 C53.33057689 450.98480529 60.34562629 447.71120889 67.27416992 444.19213867 C73.49472696 441.04001784 79.77508765 438.01621753 86.0625 435 C87.06724365 434.51732666 88.0719873 434.03465332 89.10717773 433.53735352 C93.9794109 431.20338968 98.86025433 428.89097236 103.7616272 426.61875916 C112.46549511 422.58164626 121.08513159 418.38159475 129.69924927 414.1569519 C151.37541482 403.5338097 173.20432673 393.28239506 195.22680664 383.39428711 C201.06127724 380.76355311 206.79485845 377.96275238 212.5 375.0625 C211.16472062 372.39194125 209.8682449 372.15302229 207.15234375 370.9609375 C206.24597168 370.55770264 205.33959961 370.15446777 204.40576172 369.73901367 C203.42623535 369.30951416 202.44670898 368.88001465 201.4375 368.4375 C194.84834023 365.49897703 188.29554877 362.54202562 181.875 359.25 C174.81350156 355.64808123 167.63625327 352.31781129 160.4375 349 C150.236894 344.2964255 140.09930053 339.47971516 130 334.5625 C120.25230786 329.81748439 110.47260939 325.16052753 100.625 320.625 C90.35420946 315.89364381 80.16373584 311.01847572 70 306.0625 C58.53890206 300.47430839 47.03324401 295.00795878 35.45166016 289.6730957 C26.72843116 285.65142964 18.05962677 281.52451595 9.42724609 277.3112793 C8.09814209 276.66799683 8.09814209 276.66799683 6.7421875 276.01171875 C5.9672998 275.63362061 5.19241211 275.25552246 4.39404297 274.8659668 C2.53603808 273.93232586 2.53603808 273.93232586 0.5 274.0625 Z M-14.5 414.0625 C-13.5 417.0625 -13.5 417.0625 -13.5 417.0625 Z M-14.5 418.0625 C-13.5 420.0625 -13.5 420.0625 -13.5 420.0625 Z " fill="#000000" transform="translate(517.5,236.9375)"/>
<path d="M0 0 C1.485 0.99 1.485 0.99 3 2 C2.01 2 1.02 2 0 2 C0 1.34 0 0.68 0 0 Z " fill="#2F2E2D" transform="translate(656,642)"/>
<path d="" fill="#1A1B19" transform="translate(0,0)"/>
<path d="" fill="#1A1A1A" transform="translate(0,0)"/>
<path d="" fill="#222122" transform="translate(0,0)"/>
<path d="M0 0 C2 1 2 1 2 1 Z " fill="#2D2E2E" transform="translate(631,656)"/>
<path d="" fill="#211F21" transform="translate(0,0)"/>
<path d="M0 0 C2 1 2 1 2 1 Z " fill="#2C2B2C" transform="translate(681,632)"/>
<path d="" fill="#272628" transform="translate(0,0)"/>
<path d="M0 0 C2 1 2 1 2 1 Z " fill="#29272A" transform="translate(694,577)"/>
<path d="M0 0 C2 1 2 1 2 1 Z " fill="#282928" transform="translate(692,576)"/>
<path d="M0 0 C2 1 2 1 2 1 Z " fill="#30302F" transform="translate(608,555)"/>
<path d="M0 0 C2 1 2 1 2 1 Z " fill="#2D2B2C" transform="translate(562,533)"/>
<path d="" fill="#1B1B1A" transform="translate(0,0)"/>
<path d="" fill="#1B1B1C" transform="translate(0,0)"/>
<path d="M0 0 C2 1 2 1 2 1 Z " fill="#2D2E2F" transform="translate(558,513)"/>
<path d="" fill="#1C1C1C" transform="translate(0,0)"/>
<path d="" fill="#1B1C1C" transform="translate(0,0)"/>
<path d="M0 0 C2 1 2 1 2 1 Z " fill="#212022" transform="translate(527,441)"/>
<path d="" fill="#1F1F1D" transform="translate(0,0)"/>
<path d="" fill="#292625" transform="translate(0,0)"/>
<path d="M0 0 C2 1 2 1 2 1 Z " fill="#2F2E2F" transform="translate(616,400)"/>
<path d="M0 0 C2 1 2 1 2 1 Z " fill="#302E30" transform="translate(633,392)"/>
<path d="M0 0 C2 1 2 1 2 1 Z " fill="#060503" transform="translate(354,389)"/>
<path d="M0 0 C2 1 2 1 2 1 Z " fill="#2D2C2D" transform="translate(668,376)"/>
<path d="M0 0 C2 1 2 1 2 1 Z " fill="#252425" transform="translate(720,352)"/>
<path d="M0 0 C2 1 2 1 2 1 Z " fill="#272628" transform="translate(267,344)"/>
<path d="M0 0 C2 1 2 1 2 1 Z " fill="#2C2D2B" transform="translate(725,331)"/>
<path d="M0 0 C2 1 2 1 2 1 Z " fill="#201F1E" transform="translate(424,272)"/>
<path d="" fill="#363636" transform="translate(0,0)"/>
<path d="" fill="#434243" transform="translate(0,0)"/>
<path d="" fill="#424343" transform="translate(0,0)"/>
<path d="" fill="#434341" transform="translate(0,0)"/>
<path d="" fill="#424343" transform="translate(0,0)"/>
<path d="" fill="#262526" transform="translate(0,0)"/>
<path d="" fill="#262625" transform="translate(0,0)"/>
<path d="" fill="#2F2D2E" transform="translate(0,0)"/>
<path d="" fill="#1D1D1E" transform="translate(0,0)"/>
<path d="" fill="#1E1C1C" transform="translate(0,0)"/>
<path d="" fill="#1A1819" transform="translate(0,0)"/>
<path d="" fill="#252627" transform="translate(0,0)"/>
<path d="" fill="#232423" transform="translate(0,0)"/>
<path d="" fill="#2F2E2E" transform="translate(0,0)"/>
<path d="" fill="#19171A" transform="translate(0,0)"/>
<path d="" fill="#292926" transform="translate(0,0)"/>
<path d="" fill="#1B191A" transform="translate(0,0)"/>
<path d="" fill="#292827" transform="translate(0,0)"/>
<path d="" fill="#282626" transform="translate(0,0)"/>
<path d="" fill="#1B1919" transform="translate(0,0)"/>
<path d="" fill="#2B282B" transform="translate(0,0)"/>
<path d="" fill="#191718" transform="translate(0,0)"/>
<path d="" fill="#1A1717" transform="translate(0,0)"/>
<path d="" fill="#2B2A2B" transform="translate(0,0)"/>
<path d="" fill="#302F2E" transform="translate(0,0)"/>
<path d="" fill="#312F30" transform="translate(0,0)"/>
<path d="" fill="#181917" transform="translate(0,0)"/>
<path d="" fill="#302C2B" transform="translate(0,0)"/>
<path d="" fill="#2F2E2D" transform="translate(0,0)"/>
<path d="" fill="#32312E" transform="translate(0,0)"/>
<path d="" fill="#333231" transform="translate(0,0)"/>
<path d="" fill="#2E2C2C" transform="translate(0,0)"/>
<path d="" fill="#302F2D" transform="translate(0,0)"/>
<path d="" fill="#2E2E2F" transform="translate(0,0)"/>
<path d="" fill="#30302E" transform="translate(0,0)"/>
<path d="" fill="#312E2E" transform="translate(0,0)"/>
<path d="" fill="#171816" transform="translate(0,0)"/>
<path d="" fill="#1F1F23" transform="translate(0,0)"/>
<path d="" fill="#1C1E1F" transform="translate(0,0)"/>
<path d="" fill="#31312F" transform="translate(0,0)"/>
<path d="" fill="#2F2E2D" transform="translate(0,0)"/>
<path d="" fill="#1C1A18" transform="translate(0,0)"/>
<path d="" fill="#2F2C2F" transform="translate(0,0)"/>
<path d="" fill="#191819" transform="translate(0,0)"/>
<path d="" fill="#1C1B1C" transform="translate(0,0)"/>
<path d="" fill="#2C2C2E" transform="translate(0,0)"/>
<path d="" fill="#3D3D3D" transform="translate(0,0)"/>
<path d="" fill="#2B2B29" transform="translate(0,0)"/>
<path d="" fill="#2A2928" transform="translate(0,0)"/>
<path d="" fill="#323032" transform="translate(0,0)"/>
<path d="" fill="#292929" transform="translate(0,0)"/>
<path d="" fill="#2C2C2B" transform="translate(0,0)"/>
<path d="" fill="#2A292A" transform="translate(0,0)"/>
<path d="" fill="#2D302D" transform="translate(0,0)"/>
<path d="" fill="#272829" transform="translate(0,0)"/>
<path d="" fill="#2D2C2E" transform="translate(0,0)"/>
<path d="" fill="#2B2A2C" transform="translate(0,0)"/>
<path d="" fill="#30302E" transform="translate(0,0)"/>
<path d="" fill="#20211F" transform="translate(0,0)"/>
<path d="" fill="#2A2629" transform="translate(0,0)"/>
<path d="" fill="#302D2D" transform="translate(0,0)"/>
<path d="" fill="#322F2F" transform="translate(0,0)"/>
<path d="" fill="#1A1919" transform="translate(0,0)"/>
<path d="" fill="#2D2B2B" transform="translate(0,0)"/>
<path d="" fill="#2F2F2F" transform="translate(0,0)"/>
<path d="" fill="#2F2F2F" transform="translate(0,0)"/>
<path d="" fill="#302E2F" transform="translate(0,0)"/>
<path d="" fill="#191B19" transform="translate(0,0)"/>
<path d="" fill="#2E2F2D" transform="translate(0,0)"/>
<path d="" fill="#181819" transform="translate(0,0)"/>
<path d="" fill="#312E2D" transform="translate(0,0)"/>
<path d="" fill="#312F2D" transform="translate(0,0)"/>
<path d="" fill="#31312E" transform="translate(0,0)"/>
<path d="" fill="#191A1A" transform="translate(0,0)"/>
<path d="" fill="#2A2B2D" transform="translate(0,0)"/>
<path d="" fill="#2E2E2E" transform="translate(0,0)"/>
<path d="" fill="#322E31" transform="translate(0,0)"/>
<path d="" fill="#1B1B1C" transform="translate(0,0)"/>
<path d="" fill="#322F31" transform="translate(0,0)"/>
<path d="" fill="#1A1B1B" transform="translate(0,0)"/>
<path d="" fill="#2C292B" transform="translate(0,0)"/>
<path d="" fill="#313231" transform="translate(0,0)"/>
<path d="" fill="#333231" transform="translate(0,0)"/>
<path d="" fill="#292728" transform="translate(0,0)"/>
<path d="" fill="#232424" transform="translate(0,0)"/>
<path d="" fill="#1B1C1C" transform="translate(0,0)"/>
<path d="" fill="#1E1C1C" transform="translate(0,0)"/>
<path d="" fill="#171918" transform="translate(0,0)"/>
<path d="" fill="#262524" transform="translate(0,0)"/>
<path d="" fill="#1C1C1B" transform="translate(0,0)"/>
<path d="" fill="#1E1F1B" transform="translate(0,0)"/>
<path d="" fill="#1A191A" transform="translate(0,0)"/>
<path d="" fill="#1D1E1D" transform="translate(0,0)"/>
<path d="" fill="#1A181A" transform="translate(0,0)"/>
<path d="" fill="#1D201E" transform="translate(0,0)"/>
<path d="" fill="#1C1C1E" transform="translate(0,0)"/>
<path d="" fill="#1D1D1D" transform="translate(0,0)"/>
<path d="" fill="#2E2D2E" transform="translate(0,0)"/>
<path d="" fill="#303231" transform="translate(0,0)"/>
<path d="" fill="#3A3939" transform="translate(0,0)"/>
<path d="" fill="#060706" transform="translate(0,0)"/>
<path d="" fill="#343232" transform="translate(0,0)"/>
<path d="" fill="#080307" transform="translate(0,0)"/>
<path d="" fill="#1D1D1E" transform="translate(0,0)"/>
<path d="" fill="#060606" transform="translate(0,0)"/>
<path d="" fill="#1E211F" transform="translate(0,0)"/>
<path d="" fill="#27272B" transform="translate(0,0)"/>
<path d="" fill="#020404" transform="translate(0,0)"/>
<path d="" fill="#060505" transform="translate(0,0)"/>
<path d="" fill="#2A2C2C" transform="translate(0,0)"/>
<path d="" fill="#2C2B2A" transform="translate(0,0)"/>
<path d="" fill="#2D2C2B" transform="translate(0,0)"/>
<path d="" fill="#2C2A2B" transform="translate(0,0)"/>
<path d="" fill="#313130" transform="translate(0,0)"/>
<path d="" fill="#060605" transform="translate(0,0)"/>
<path d="" fill="#333132" transform="translate(0,0)"/>
<path d="" fill="#302F2E" transform="translate(0,0)"/>
<path d="" fill="#060404" transform="translate(0,0)"/>
<path d="" fill="#040505" transform="translate(0,0)"/>
<path d="" fill="#2F2D2D" transform="translate(0,0)"/>
<path d="" fill="#030404" transform="translate(0,0)"/>
<path d="" fill="#060404" transform="translate(0,0)"/>
<path d="" fill="#333130" transform="translate(0,0)"/>
<path d="" fill="#2D2E2D" transform="translate(0,0)"/>
<path d="" fill="#050506" transform="translate(0,0)"/>
<path d="" fill="#313333" transform="translate(0,0)"/>
<path d="" fill="#070305" transform="translate(0,0)"/>
<path d="" fill="#050303" transform="translate(0,0)"/>
<path d="" fill="#070403" transform="translate(0,0)"/>
<path d="" fill="#2E2E2F" transform="translate(0,0)"/>
<path d="" fill="#31302E" transform="translate(0,0)"/>
<path d="" fill="#31302F" transform="translate(0,0)"/>
<path d="" fill="#282528" transform="translate(0,0)"/>
<path d="" fill="#302F2E" transform="translate(0,0)"/>
<path d="" fill="#080805" transform="translate(0,0)"/>
<path d="" fill="#1F2223" transform="translate(0,0)"/>
<path d="" fill="#060507" transform="translate(0,0)"/>
<path d="" fill="#0B0909" transform="translate(0,0)"/>
<path d="" fill="#0B0A0A" transform="translate(0,0)"/>
<path d="" fill="#242525" transform="translate(0,0)"/>
<path d="" fill="#242727" transform="translate(0,0)"/>
<path d="" fill="#292B29" transform="translate(0,0)"/>
<path d="" fill="#2B2A2A" transform="translate(0,0)"/>
<path d="" fill="#2B2726" transform="translate(0,0)"/>
<path d="" fill="#262627" transform="translate(0,0)"/>
<path d="" fill="#3F3F40" transform="translate(0,0)"/>
<path d="" fill="#272627" transform="translate(0,0)"/>
<path d="" fill="#2A2A29" transform="translate(0,0)"/>
<path d="" fill="#2C2A2A" transform="translate(0,0)"/>
<path d="" fill="#2A2A2B" transform="translate(0,0)"/>
<path d="" fill="#2C2B2B" transform="translate(0,0)"/>
<path d="" fill="#2A282A" transform="translate(0,0)"/>
<path d="" fill="#222324" transform="translate(0,0)"/>
<path d="" fill="#2A2A29" transform="translate(0,0)"/>
<path d="" fill="#2E2A2D" transform="translate(0,0)"/>
<path d="" fill="#2B292B" transform="translate(0,0)"/>
<path d="" fill="#2B2929" transform="translate(0,0)"/>
<path d="" fill="#2C2C29" transform="translate(0,0)"/>
<path d="" fill="#29282A" transform="translate(0,0)"/>
<path d="" fill="#20211F" transform="translate(0,0)"/>
<path d="" fill="#2E2D2F" transform="translate(0,0)"/>
<path d="" fill="#1F211E" transform="translate(0,0)"/>
<path d="" fill="#2E2C2D" transform="translate(0,0)"/>
<path d="" fill="#2C2B2D" transform="translate(0,0)"/>
<path d="" fill="#2C2D2C" transform="translate(0,0)"/>
<path d="" fill="#2B2A2B" transform="translate(0,0)"/>
<path d="" fill="#2D2C29" transform="translate(0,0)"/>
<path d="" fill="#21201F" transform="translate(0,0)"/>
<path d="" fill="#22221F" transform="translate(0,0)"/>
<path d="" fill="#2C2B2B" transform="translate(0,0)"/>
<path d="" fill="#232222" transform="translate(0,0)"/>
<path d="" fill="#2E2C2D" transform="translate(0,0)"/>
<path d="" fill="#1F1E1F" transform="translate(0,0)"/>
<path d="" fill="#2B282A" transform="translate(0,0)"/>
<path d="" fill="#2E2D2C" transform="translate(0,0)"/>
<path d="" fill="#222121" transform="translate(0,0)"/>
<path d="" fill="#2A2A29" transform="translate(0,0)"/>
<path d="" fill="#2C2C2C" transform="translate(0,0)"/>
<path d="" fill="#2A272A" transform="translate(0,0)"/>
<path d="" fill="#29282B" transform="translate(0,0)"/>
<path d="" fill="#2B2B2E" transform="translate(0,0)"/>
<path d="" fill="#232322" transform="translate(0,0)"/>
<path d="" fill="#272927" transform="translate(0,0)"/>
<path d="" fill="#282628" transform="translate(0,0)"/>
<path d="" fill="#221F21" transform="translate(0,0)"/>
<path d="" fill="#232421" transform="translate(0,0)"/>
<path d="" fill="#282325" transform="translate(0,0)"/>
<path d="" fill="#272725" transform="translate(0,0)"/>
<path d="" fill="#2D2B2A" transform="translate(0,0)"/>
<path d="" fill="#2C2C2A" transform="translate(0,0)"/>
<path d="" fill="#2E2C2C" transform="translate(0,0)"/>
<path d="" fill="#242522" transform="translate(0,0)"/>
<path d="" fill="#242423" transform="translate(0,0)"/>
<path d="" fill="#2C2C2A" transform="translate(0,0)"/>
<path d="" fill="#302F2F" transform="translate(0,0)"/>
<path d="" fill="#49494A" transform="translate(0,0)"/>
<path d="" fill="#444443" transform="translate(0,0)"/>
<path d="" fill="#4B4B4A" transform="translate(0,0)"/>
</svg>
